<svg xmlns="http://www.w3.org/2000/svg" xmlns:xlink="http://www.w3.org/1999/xlink" width="210" zoomAndPan="magnify" viewBox="0 0 157.5 44.999999" height="60" preserveAspectRatio="xMidYMid meet" version="1.0"><defs><g/><clipPath id="c190320fbe"><path d="M 4.515625 11.699219 L 42.738281 11.699219 L 42.738281 29.699219 L 4.515625 29.699219 Z M 4.515625 11.699219 " clip-rule="nonzero"/></clipPath></defs><g fill="#222222" fill-opacity="1"><g transform="translate(44.479508, 26.862767)"><g><path d="M 9.160156 -3.839844 C 8.695312 -2.84375 7.566406 -2.160156 6.402344 -2.160156 C 4.574219 -2.160156 3.109375 -3.722656 3.109375 -5.652344 C 3.109375 -7.566406 4.574219 -9.144531 6.402344 -9.144531 C 7.550781 -9.144531 8.679688 -8.511719 9.144531 -7.5 L 11.921875 -7.5 C 11.15625 -9.808594 8.980469 -11.472656 6.402344 -11.472656 C 3.191406 -11.472656 0.582031 -8.863281 0.582031 -5.652344 C 0.582031 -2.445312 3.191406 0.167969 6.402344 0.167969 C 8.980469 0.167969 11.171875 -1.511719 11.9375 -3.839844 Z M 9.160156 -3.839844 "/></g></g></g><g fill="#222222" fill-opacity="1"><g transform="translate(56.826069, 26.862767)"><g><path d="M 7.214844 -11.308594 L 7.214844 -6.800781 L 3.492188 -6.800781 L 3.492188 -11.308594 L 0.996094 -11.308594 L 0.996094 0 L 3.492188 0 L 3.492188 -4.539062 L 7.214844 -4.539062 L 7.214844 0 L 9.875 0 L 9.875 -11.308594 Z M 7.214844 -11.308594 "/></g></g></g><g fill="#222222" fill-opacity="1"><g transform="translate(67.693698, 26.862767)"><g><path d="M 7.148438 -4.324219 L 4.289062 -4.324219 L 5.71875 -8.347656 Z M 11.375 0 L 6.785156 -11.308594 L 4.671875 -11.308594 L 0.0820312 0 L 2.761719 0 L 3.574219 -2.277344 L 7.882812 -2.277344 L 8.695312 0 Z M 11.375 0 "/></g></g></g><g fill="#222222" fill-opacity="1"><g transform="translate(79.142939, 26.862767)"><g><path d="M 5.804688 -9.046875 L 9.027344 -9.046875 L 9.027344 -11.308594 L 0.0820312 -11.308594 L 0.0820312 -9.046875 L 3.308594 -9.046875 L 3.308594 0 L 5.804688 0 Z M 5.804688 -9.046875 "/></g></g></g><g fill="#222222" fill-opacity="1"><g transform="translate(88.249151, 26.862767)"><g><path d="M 5.804688 -9.046875 L 9.027344 -9.046875 L 9.027344 -11.308594 L 0.0820312 -11.308594 L 0.0820312 -9.046875 L 3.308594 -9.046875 L 3.308594 0 L 5.804688 0 Z M 5.804688 -9.046875 "/></g></g></g><g fill="#222222" fill-opacity="1"><g transform="translate(97.355363, 26.862767)"><g><path d="M 0.863281 -1.28125 C 0.863281 -0.480469 1.511719 0.167969 2.328125 0.167969 C 3.125 0.167969 3.792969 -0.480469 3.792969 -1.28125 C 3.792969 -2.09375 3.125 -2.742188 2.328125 -2.742188 C 1.511719 -2.742188 0.863281 -2.09375 0.863281 -1.28125 Z M 0.863281 -1.28125 "/></g></g></g><g fill="#222222" fill-opacity="1"><g transform="translate(102.008176, 26.862767)"><g><path d="M 5.386719 -1.761719 C 4.15625 -1.761719 3.09375 -2.378906 3.027344 -3.722656 L 0.5 -3.722656 C 0.515625 -0.964844 2.792969 0.265625 5.289062 0.265625 C 7.597656 0.265625 9.976562 -0.714844 9.976562 -3.375 C 9.976562 -7.683594 3.441406 -6.234375 3.441406 -8.246094 C 3.441406 -9.09375 4.421875 -9.429688 5.121094 -9.429688 C 6.367188 -9.429688 7.050781 -9.046875 7.183594 -7.863281 L 9.59375 -7.863281 C 9.511719 -10.441406 7.414062 -11.472656 5.089844 -11.472656 C 3.027344 -11.472656 0.863281 -10.375 0.863281 -8.046875 C 0.863281 -3.875 7.398438 -5.289062 7.398438 -3.09375 C 7.398438 -2.078125 6.167969 -1.761719 5.386719 -1.761719 Z M 5.386719 -1.761719 "/></g></g></g><g fill="#222222" fill-opacity="1"><g transform="translate(112.477002, 26.862767)"><g><path d="M 9.160156 -3.839844 C 8.695312 -2.84375 7.566406 -2.160156 6.402344 -2.160156 C 4.574219 -2.160156 3.109375 -3.722656 3.109375 -5.652344 C 3.109375 -7.566406 4.574219 -9.144531 6.402344 -9.144531 C 7.550781 -9.144531 8.679688 -8.511719 9.144531 -7.5 L 11.921875 -7.5 C 11.15625 -9.808594 8.980469 -11.472656 6.402344 -11.472656 C 3.191406 -11.472656 0.582031 -8.863281 0.582031 -5.652344 C 0.582031 -2.445312 3.191406 0.167969 6.402344 0.167969 C 8.980469 0.167969 11.171875 -1.511719 11.9375 -3.839844 Z M 9.160156 -3.839844 "/></g></g></g><g fill="#222222" fill-opacity="1"><g transform="translate(124.823562, 26.862767)"><g><path d="M 7.148438 -4.324219 L 4.289062 -4.324219 L 5.71875 -8.347656 Z M 11.375 0 L 6.785156 -11.308594 L 4.671875 -11.308594 L 0.0820312 0 L 2.761719 0 L 3.574219 -2.277344 L 7.882812 -2.277344 L 8.695312 0 Z M 11.375 0 "/></g></g></g><g fill="#222222" fill-opacity="1"><g transform="translate(136.272803, 26.862767)"><g><path d="M 0.996094 0 L 7.550781 0 L 7.550781 -2.261719 L 3.492188 -2.261719 L 3.492188 -11.308594 L 0.996094 -11.308594 Z M 0.996094 0 "/></g></g></g><g fill="#222222" fill-opacity="1"><g transform="translate(144.3986, 26.862767)"><g><path d="M 7.550781 -2.261719 L 3.492188 -2.261719 L 3.492188 -4.539062 L 7.382812 -4.539062 L 7.382812 -6.800781 L 3.492188 -6.800781 L 3.492188 -9.046875 L 7.550781 -9.046875 L 7.550781 -11.308594 L 0.996094 -11.308594 L 0.996094 0 L 7.550781 0 Z M 7.550781 -2.261719 "/></g></g></g><g clip-path="url(#c190320fbe)"><path fill="#3c6e71" d="M 9.003906 25.964844 C 8.621094 25.335938 8.546875 24.578125 7.941406 24.324219 C 7.34375 24.078125 6.597656 24.417969 5.929688 24.609375 C 5.632812 25.136719 5.371094 25.703125 5.203125 26.363281 C 6.109375 26.839844 7.371094 26.957031 8.613281 27.097656 C 8.78125 26.757812 8.816406 26.285156 9.003906 25.964844 Z M 42.640625 26.757812 C 42.773438 27.242188 42.78125 27.894531 42.582031 28.398438 C 41.171875 28.671875 39.636719 28.300781 38.226562 28.570312 C 37.25 28.757812 36.183594 29.300781 35.265625 28.511719 C 34.195312 28.957031 33.003906 28.441406 31.800781 28.398438 C 29.492188 28.320312 27.042969 28.273438 24.816406 28.570312 C 24.480469 28.929688 24.332031 29.476562 23.867188 29.699219 C 22.886719 29.488281 22.082031 29.585938 21.351562 29.304688 C 20.996094 29.167969 20.785156 28.863281 20.511719 28.738281 C 19.664062 28.34375 18.390625 28.21875 17.328125 28.511719 C 16.964844 28.613281 16.511719 28.953125 16.097656 28.910156 C 15.34375 28.828125 15.019531 27.472656 14.089844 27.269531 C 13.46875 27.132812 12.632812 27.449219 11.964844 27.550781 C 10.921875 27.710938 9.601562 28.242188 9.339844 27.269531 C 9.109375 27.894531 8.542969 27.773438 7.71875 27.664062 C 7.328125 27.609375 6.917969 27.664062 6.601562 27.605469 C 6.027344 27.503906 4.644531 27.015625 4.535156 26.644531 C 4.425781 26.289062 4.785156 25.683594 4.925781 25.289062 C 5.066406 24.886719 5.171875 24.398438 5.484375 24.15625 C 6.085938 23.683594 7.820312 23.429688 8.445312 23.929688 C 9.898438 21.339844 11.070312 18.355469 12.804688 15.894531 C 13.035156 15.566406 13.332031 15.195312 13.585938 14.820312 C 13.851562 14.429688 14.054688 13.917969 14.3125 13.691406 C 15.164062 12.941406 17.859375 12.632812 19.226562 12.445312 C 21.089844 12.191406 23.074219 11.828125 24.816406 11.710938 C 27.085938 11.554688 28.613281 13.226562 29.84375 14.3125 C 30.207031 14.628906 30.605469 15.144531 30.90625 15.21875 C 31.960938 15.46875 33.050781 14.375 34.148438 14.707031 C 34.585938 14.839844 35.472656 16.429688 35.710938 16.859375 C 37.078125 19.300781 38.1875 21.691406 39.511719 24.101562 C 40.308594 24.378906 41.664062 24.429688 42.023438 25.230469 C 42.101562 25.402344 42.042969 25.703125 42.136719 25.964844 C 42.242188 26.265625 42.570312 26.503906 42.640625 26.757812 Z M 40.460938 27.832031 C 41.042969 27.777344 41.625 28.003906 42.136719 27.832031 C 42.117188 27.277344 42.078125 26.332031 41.523438 26.816406 C 41.167969 26.710938 40.78125 26.644531 40.515625 26.871094 C 40.535156 27.230469 40.507812 27.542969 40.460938 27.832031 Z M 31.855469 25.851562 C 32.199219 25.976562 32.132812 26.375 32.246094 26.644531 C 32.421875 27.0625 32.824219 27.394531 32.863281 27.890625 C 33.632812 27.925781 34.273438 28.15625 34.929688 27.945312 C 35.28125 27.835938 35.585938 27.414062 35.933594 27.097656 C 36.9375 26.183594 38.128906 25.335938 38.894531 24.4375 C 37.769531 22.230469 36.585938 19.765625 35.320312 17.539062 C 35.089844 17.136719 34.269531 15.570312 33.867188 15.445312 C 33.496094 15.328125 32.796875 15.558594 32.359375 15.671875 C 31.261719 15.953125 30.242188 16.160156 29.339844 16.574219 C 28.925781 16.769531 28.253906 17.382812 27.945312 16.914062 C 28.582031 16.332031 29.566406 16.105469 30.347656 15.671875 C 29.59375 15.304688 28.863281 16.429688 28.222656 16.179688 C 28.429688 15.558594 29.199219 15.507812 29.734375 15.21875 C 28.421875 14.070312 27.136719 12.238281 24.648438 12.445312 C 22.957031 12.585938 21.367188 12.816406 19.675781 13.066406 C 19.671875 13.613281 20.359375 14.683594 20.121094 15.105469 C 19.359375 15.023438 19.832031 12.980469 18.726562 13.238281 C 18.714844 13.855469 19.144531 14.507812 19.285156 15.160156 C 19.453125 15.273438 19.796875 15.683594 19.507812 15.894531 C 18.984375 15.796875 18.949219 15.113281 18.78125 14.707031 C 18.585938 14.234375 18.34375 13.804688 18.222656 13.351562 C 16.824219 13.402344 15.789062 13.828125 14.757812 14.257812 C 13.75 15.71875 12.609375 17.214844 11.574219 19.179688 C 11.152344 19.976562 10.75 20.9375 10.234375 21.894531 C 9.808594 22.675781 8.902344 23.8125 8.949219 24.664062 C 8.96875 25.074219 9.304688 25.511719 9.449219 25.910156 C 9.617188 26.363281 9.769531 26.753906 9.953125 27.15625 C 10.785156 27.144531 11.414062 26.984375 12.078125 26.871094 C 12.730469 26.761719 13.460938 26.433594 14.199219 26.589844 C 14.898438 26.734375 15.644531 28.09375 16.210938 28.171875 C 16.671875 28.238281 17.3125 27.78125 17.832031 27.71875 C 19.214844 27.558594 20.242188 27.949219 21.238281 28.457031 C 21.601562 28.019531 21.894531 27.273438 22.523438 27.15625 C 23.550781 26.960938 23.851562 27.902344 24.425781 28.003906 C 24.933594 28.09375 25.835938 27.761719 26.546875 27.71875 C 28.171875 27.625 29.742188 27.796875 31.242188 27.777344 C 31.0625 26.789062 30.453125 25.933594 30.402344 25.003906 C 30.816406 24.824219 30.871094 25.300781 30.851562 25.628906 C 31.210938 26.28125 31.378906 27.128906 31.746094 27.777344 C 32.007812 27.753906 32.210938 27.796875 32.414062 27.832031 C 32.320312 27.164062 31.421875 26.503906 31.855469 25.851562 Z M 41.464844 26.25 C 41.578125 26.097656 41.5 25.753906 41.523438 25.515625 C 40.820312 25.226562 40.238281 24.8125 39.34375 24.722656 C 38.179688 25.863281 36.875 26.863281 35.710938 28.003906 C 36.566406 28.628906 37.296875 28.035156 38.113281 27.890625 C 38.734375 27.777344 39.34375 27.902344 39.957031 27.71875 C 40.179688 27.519531 40.136719 27.042969 40.070312 26.703125 C 40.3125 26.308594 40.847656 26.101562 41.464844 26.25 Z M 21.742188 28.683594 C 22.507812 28.664062 23.679688 29.359375 24.035156 28.570312 C 23.597656 27.3125 21.945312 27.425781 21.742188 28.683594 " fill-opacity="1" fill-rule="nonzero"/></g></svg>